<svg width="25" height="40" viewBox="0 0 25 40" fill="none" xmlns="http://www.w3.org/2000/svg">
<path d="M24.2175 5.10239C23.8932 4.60575 23.4194 4.59149 22.8795 4.57523C22.8183 4.57339 22.7563 4.57153 22.6936 4.56893C22.6458 4.56673 22.5931 4.56758 22.538 4.56846C22.319 4.57198 22.0629 4.57609 21.9339 4.39212C21.7843 4.17883 21.7985 3.76663 21.8102 3.42635C21.8139 3.31882 21.8173 3.21841 21.8153 3.1338C21.7943 2.34332 21.7504 1.50363 21.4453 1.22292C21.2152 1.01231 20.5268 1.04149 19.892 1.0684C19.6862 1.07712 19.486 1.0856 19.3089 1.0856H5.79596C5.52389 1.0856 5.23869 1.06345 4.95847 1.04168C4.41245 0.999266 3.88533 0.958319 3.511 1.0856C2.96775 1.27123 2.93096 2.24667 2.89633 3.16519L2.89446 3.21461C2.86538 3.97288 2.67746 4.55799 2.05465 4.49906C1.33029 4.43161 0.609497 4.41035 0.281987 5.06594C-0.10481 5.84161 -0.0250374 6.65358 0.117847 8.10792C0.138258 8.31567 0.159956 8.53652 0.181766 8.77225H24.4264C24.4403 8.59995 24.455 8.42986 24.4696 8.26253C24.5831 6.95406 24.682 5.81402 24.2175 5.10239Z" fill="#8047F8"/>
<path fill-rule="evenodd" clip-rule="evenodd" d="M2.06987 10.2147C2.44852 15.3395 2.82304 20.4701 3.19757 25.6009L3.1978 25.604C3.40115 28.3898 3.60451 31.1757 3.80853 33.9606H4.58212C4.63483 34.3965 4.69515 34.9347 4.75874 35.5021C4.88783 36.6539 5.03044 37.9264 5.15034 38.7083H5.2359C6.02387 38.42 11.4712 36.0916 11.4736 26.8218C11.4726 26.7954 11.4735 26.7689 11.4762 26.7427H10.1304C10.0653 26.7421 10.0021 26.7203 9.9507 26.6808C9.89927 26.6413 9.86241 26.5861 9.84577 26.5238C9.71463 26.1999 9.60888 25.8664 9.52948 25.5264C8.73777 25.9736 8.10906 26.6564 7.73296 27.4775C7.37594 26.6365 7.32921 25.6983 7.60093 24.8267C7.87266 23.9551 8.44556 23.2057 9.21952 22.7093C9.22949 20.0043 10.2423 17.3968 12.0661 15.3804L12.0946 15.3553C12.1476 15.3095 12.2155 15.284 12.2859 15.2834C12.3266 15.2838 12.3668 15.2925 12.4039 15.309C12.4415 15.3257 12.4751 15.35 12.5026 15.3804C14.3478 17.3996 15.3552 20.0321 15.3239 22.7531C16.1123 23.2356 16.6969 23.9845 16.9691 24.8608C17.2413 25.7371 17.1827 26.6813 16.8042 27.5181C16.4301 26.6957 15.8008 26.0123 15.0076 25.5671C14.9592 25.8966 14.8699 26.219 14.7419 26.527C14.6977 26.6583 14.6091 26.7427 14.5205 26.7427H13.0853C13.0876 26.7584 13.0892 26.7742 13.0901 26.7901L13.0907 26.7937V26.8014C13.0912 26.815 13.0912 26.8287 13.0907 26.8424C13.1104 36.3783 18.902 38.5428 19.3902 38.7083H19.5572C19.5998 37.9572 19.7386 36.9208 19.8739 35.9104C19.9671 35.2142 20.0587 34.5302 20.116 33.9606H20.8985C21.149 30.4527 21.4066 26.9546 21.6642 23.4564L21.6644 23.4545L21.6645 23.4535C21.994 18.9789 22.3235 14.5042 22.6381 10.0087H2.11998C2.06092 10.0202 2.06495 10.1169 2.06987 10.2147ZM12.2859 15.2834L12.2844 15.2834H12.2875L12.2859 15.2834Z" fill="#8047F8"/>
</svg>
